<?xml version="1.0" standalone="no"?>
<!DOCTYPE svg PUBLIC "-//W3C//DTD SVG 20010904//EN" "http://www.w3.org/TR/2001/REC-SVG-20010904/DTD/svg10.dtd">
<svg xmlns="http://www.w3.org/2000/svg" version="1.0" width="500" height="500" viewBox="0 0 500.000000 500.000000" preserveAspectRatio="xMidYMid meet">

<g transform="translate(0.000000,500.000000) scale(0.100000,-0.100000)" fill="#000000" stroke="none">
<path d="M2296 4069 c-223 -23 -408 -90 -599 -215 -185 -121 -267 -229 -301 -396 -59 -286 66 -509 370 -661 100 -50 170 -71 404 -119 l205 -42 220 0 c182 1 236 4 315 21 177 38 305 102 464 234 197 163 266 284 266 469 0 120 -13 182 -59 275 -66 133 -133 195 -336 313 -111 65 -237 99 -437 121 -111 13 -395 12 -512 0z m652 -67 c123 -27 217 -59 250 -85 15 -12 49 -33 75 -47 74 -38 198 -143 235 -197 18 -27 41 -72 52 -100 19 -50 19 -51 0 -46 -26 7 -25 -4 1 -26 29 -24 42 -107 29 -197 -22 -167 -80 -242 -270 -349 -71 -40 -80 -42 -80 -16 0 11 -5 23 -11 27 -7 4 -10 -5 -7 -27 2 -26 -1 -34 -14 -37 -13 -3 -18 3 -18 20 0 13 -7 33 -16 44 -15 18 -15 18 -9 -11 3 -16 8 -37 11 -46 2 -9 -1 -21 -8 -26 -27 -21 -275 -96 -348 -105 -21 -3 -25 1 -27 27 -4 47 -12 75 -24 75 -7 0 -8 -12 -3 -32 8 -37 8 -67 -1 -76 -12 -12 -253 -14 -354 -3 -133 14 -314 51 -323 65 -4 6 -5 21 -1 33 3 14 1 23 -6 23 -6 0 -14 -12 -17 -26 -5 -18 -10 -22 -17 -15 -7 7 -7 19 2 37 6 15 10 29 7 31 -10 10 -25 -8 -31 -37 -4 -17 -11 -30 -16 -30 -20 0 -20 31 -1 65 12 19 17 37 12 40 -11 7 -36 -30 -45 -67 l-7 -26 -65 24 c-36 13 -83 34 -105 45 -34 17 -39 24 -34 45 4 15 2 24 -5 24 -6 0 -13 -9 -16 -20 -3 -11 -8 -20 -10 -20 -8 0 -124 71 -160 97 -18 14 -34 20 -37 14 -4 -5 27 -31 68 -58 128 -83 128 -83 271 -138 39 -14 81 -31 95 -37 14 -6 32 -12 40 -14 8 -1 74 -16 145 -32 185 -44 287 -55 457 -50 98 3 149 0 152 -6 3 -7 8 -5 14 3 6 8 51 23 101 33 50 10 131 32 181 49 72 24 95 28 106 18 9 -7 14 -8 14 -1 0 6 7 18 16 27 13 12 19 13 24 4 9 -13 30 -4 30 14 0 7 29 27 65 45 36 17 65 30 65 28 0 -8 -121 -97 -184 -136 -186 -113 -439 -162 -724 -141 -131 10 -463 75 -568 111 -176 61 -350 186 -417 300 -76 130 -73 344 6 495 99 186 383 358 684 414 156 29 154 29 428 26 206 -2 266 -7 343 -23z"/>
<path d="M2653 3989 c-20 -21 -22 -21 -51 -3 -24 14 -36 15 -54 7 -14 -6 -54 -8 -94 -6 -53 4 -78 1 -102 -11 -30 -15 -32 -15 -42 4 -6 11 -15 18 -21 15 -5 -4 -5 -14 1 -26 16 -30 3 -39 -44 -33 -31 5 -54 1 -77 -10 -17 -9 -44 -16 -59 -16 -16 0 -37 -11 -56 -31 -26 -28 -33 -30 -76 -25 -46 5 -49 4 -79 -34 -32 -39 -68 -58 -156 -80 -41 -10 -62 -37 -48 -60 4 -6 -9 -17 -29 -25 -43 -18 -60 -47 -53 -92 5 -29 2 -36 -18 -45 -25 -11 -45 -54 -45 -95 0 -13 -7 -38 -16 -55 -15 -29 -15 -33 0 -43 14 -11 14 -16 0 -58 -13 -38 -14 -53 -4 -82 13 -39 43 -65 76 -65 23 0 34 -17 34 -55 0 -24 29 -35 93 -35 24 0 41 -10 73 -45 36 -40 46 -45 83 -45 23 0 59 9 81 20 53 27 83 25 122 -9 18 -15 43 -33 55 -40 31 -16 85 -14 110 4 21 14 26 14 72 -10 56 -28 88 -31 137 -13 28 10 40 8 84 -10 77 -32 112 -29 159 14 l40 35 47 -20 c56 -25 79 -26 119 -5 20 11 58 17 115 18 l85 1 11 35 c12 34 13 35 65 35 61 0 79 8 79 35 0 36 27 50 96 50 59 0 68 3 95 29 21 22 29 39 29 66 0 28 7 44 30 65 17 15 30 36 30 46 0 11 -16 42 -36 70 l-35 52 25 61 c15 33 26 70 26 81 0 21 -38 65 -74 85 -10 6 -23 34 -31 70 -8 33 -22 65 -32 73 -10 7 -44 12 -86 11 -68 -2 -69 -1 -99 36 -30 36 -33 37 -81 32 -48 -4 -52 -3 -90 36 -37 37 -41 39 -84 33 -38 -5 -49 -2 -79 20 -31 24 -39 25 -93 19 -59 -7 -60 -6 -67 19 -8 32 -32 34 -61 5z m-178 -49 c8 -13 51 -13 75 0 13 7 26 6 45 -4 20 -10 35 -12 52 -5 18 7 30 5 46 -6 17 -12 36 -14 80 -9 52 6 61 4 82 -16 24 -22 80 -30 105 -15 5 3 31 -14 58 -39 l50 -44 -36 -6 c-22 -3 -38 -1 -40 4 -5 15 -81 52 -92 45 -14 -9 -12 -26 3 -24 15 3 67 -18 67 -27 0 -3 -11 -15 -25 -26 -19 -15 -25 -29 -25 -59 0 -73 68 -112 195 -112 124 -1 173 34 162 116 l-5 39 41 -6 c52 -9 67 -21 67 -57 0 -15 4 -39 10 -53 9 -24 7 -26 -17 -26 -24 0 -25 2 -20 37 7 42 -5 63 -37 63 -21 -1 -21 -1 -1 -16 14 -11 20 -27 20 -57 l0 -42 43 -3 c41 -3 43 -5 38 -28 -4 -16 0 -36 11 -55 17 -29 17 -31 1 -40 -28 -16 -38 -43 -28 -77 8 -29 6 -31 -13 -29 -19 2 -22 -2 -19 -35 2 -28 -2 -40 -20 -52 -33 -24 -45 -19 -20 7 23 24 30 71 12 82 -5 3 -10 15 -10 25 0 15 -11 20 -63 25 -74 8 -142 -7 -157 -35 -5 -10 -10 -40 -10 -65 0 -61 35 -99 101 -109 88 -13 202 29 215 79 6 24 7 25 21 8 13 -16 14 -15 9 12 -3 17 -12 51 -20 77 -13 40 -13 48 0 59 12 9 14 6 14 -22 0 -30 12 -55 52 -111 11 -15 9 -22 -15 -43 -20 -20 -27 -35 -27 -65 0 -53 -17 -66 -101 -74 -74 -8 -119 -34 -119 -71 0 -13 -10 -16 -57 -13 l-58 3 -19 -42 -20 -42 -67 6 c-54 5 -72 2 -98 -13 -28 -16 -35 -17 -78 -5 -95 28 -118 26 -144 -8 -30 -41 -40 -43 -106 -20 -41 14 -78 19 -132 17 -57 -2 -88 2 -123 17 -49 20 -48 20 -133 -12 -6 -2 -34 15 -63 37 -65 48 -105 57 -158 35 -90 -39 -92 -39 -145 13 -44 42 -54 47 -96 47 -45 0 -47 1 -56 35 -10 39 -22 50 -53 50 -12 0 -29 12 -39 26 -18 28 -17 33 15 136 5 16 4 30 -1 34 -5 3 -9 11 -9 19 0 7 15 -2 34 -21 39 -39 82 -44 141 -20 80 34 107 101 60 152 -21 23 -35 27 -95 32 l-70 5 0 38 c0 32 5 41 29 54 40 20 63 45 57 61 -5 13 22 34 43 34 6 0 11 -11 11 -24 0 -34 36 -74 78 -86 112 -31 202 10 202 91 0 26 -7 45 -22 59 -20 19 -76 40 -106 40 -7 0 -10 5 -7 10 3 6 28 10 55 10 61 0 79 7 90 35 9 25 49 34 160 38 36 1 67 9 85 21 70 46 125 60 140 36z m686 -136 c8 -9 12 -27 11 -40 -2 -15 3 -24 18 -29 17 -5 20 -13 18 -38 -4 -44 -37 -59 -118 -53 -51 3 -68 9 -82 26 -22 27 -23 66 -2 74 25 9 56 7 49 -4 -3 -5 3 -10 15 -10 12 0 19 4 15 9 -3 5 9 11 27 13 25 2 33 8 33 23 0 14 -8 21 -24 23 -19 3 -21 6 -10 13 21 13 35 11 50 -7z m-1266 -74 c-3 -5 1 -10 10 -10 9 0 13 5 10 10 -4 6 10 10 36 10 34 0 39 -2 30 -14 -9 -11 -8 -15 5 -20 23 -9 27 -8 20 9 -7 19 -1 19 18 -1 21 -20 20 -30 -4 -54 -36 -36 -147 -23 -170 19 -8 17 -7 24 10 41 21 21 46 28 35 10z m1573 -162 c14 -14 16 -47 3 -66 -12 -19 -41 29 -34 57 6 24 14 26 31 9z m-1768 -108 c23 15 57 12 64 -6 4 -9 13 -14 21 -10 10 4 15 -1 15 -14 0 -15 -7 -20 -26 -20 -16 0 -23 -4 -18 -11 9 -15 -15 -29 -52 -29 -36 0 -48 9 -33 26 7 9 5 14 -10 19 -23 7 -27 25 -9 43 7 7 16 8 23 2 6 -5 16 -5 25 0z m1500 -100 c0 -5 7 -10 15 -10 8 0 15 5 15 10 0 6 9 10 20 10 11 0 19 -5 18 -11 -2 -6 3 -14 10 -16 6 -3 12 2 12 11 0 19 11 21 28 4 19 -19 14 -45 -14 -67 -27 -21 -66 -26 -123 -15 -39 8 -52 45 -26 74 19 21 45 27 45 10z"/>
<path d="M2380 3895 c-16 -20 -5 -32 14 -15 10 8 30 10 58 5 40 -5 42 -5 24 10 -25 19 -80 19 -96 0z"/>
<path d="M2556 3879 c-44 -10 -106 -46 -106 -60 0 -13 9 -11 39 11 43 30 103 39 183 28 73 -10 98 -5 56 11 -40 15 -130 21 -172 10z"/>
<path d="M2255 3852 c-45 -7 -77 -26 -90 -53 -46 -87 24 -169 145 -169 63 0 103 20 120 59 16 40 7 72 -34 115 -34 36 -94 57 -141 48z m-11 -61 c-18 -11 -34 -25 -37 -33 -3 -8 -6 -9 -6 -1 -1 13 46 53 63 53 6 0 -3 -9 -20 -19z m90 -7 c9 -3 13 -10 10 -15 -3 -5 4 -9 16 -9 52 0 31 -75 -24 -85 -36 -7 -101 9 -113 27 -4 7 0 9 10 5 19 -7 22 4 6 20 -18 18 -2 43 26 43 14 0 25 5 25 10 0 11 20 13 44 4z"/>
<path d="M2280 3730 c0 -5 5 -10 10 -10 6 0 10 5 10 10 0 6 -4 10 -10 10 -5 0 -10 -4 -10 -10z"/>
<path d="M2335 3720 c-3 -5 1 -10 9 -10 9 0 16 5 16 10 0 6 -4 10 -9 10 -6 0 -13 -4 -16 -10z"/>
<path d="M2795 3850 c-8 -13 15 -68 32 -74 6 -3 17 2 24 11 11 12 10 20 -2 41 -16 29 -43 40 -54 22z"/>
<path d="M2534 3816 c-114 -50 -61 -186 73 -186 50 0 112 18 146 42 36 26 38 74 3 88 -19 7 -23 14 -19 30 4 13 0 26 -8 31 -22 14 -160 10 -195 -5z m124 -37 c-2 -6 3 -14 10 -16 6 -3 12 0 12 6 0 17 27 13 34 -5 22 -58 -6 -84 -92 -84 -57 0 -96 18 -100 47 -4 29 25 56 54 49 12 -3 26 -2 29 4 9 14 56 13 53 -1z"/>
<path d="M2600 3730 c0 -5 5 -10 10 -10 6 0 10 5 10 10 0 6 -4 10 -10 10 -5 0 -10 -4 -10 -10z"/>
<path d="M2550 3720 c0 -5 7 -10 16 -10 8 0 12 5 9 10 -3 6 -10 10 -16 10 -5 0 -9 -4 -9 -10z"/>
<path d="M2655 3720 c3 -5 10 -10 16 -10 5 0 9 5 9 10 0 6 -7 10 -16 10 -8 0 -12 -4 -9 -10z"/>
<path d="M2117 3683 c-22 -21 6 -64 51 -78 39 -11 40 22 1 55 -36 31 -42 34 -52 23z"/>
<path d="M2837 3668 c-5 -16 9 -46 36 -75 20 -23 77 -32 77 -13 0 12 -87 100 -99 100 -5 0 -11 -6 -14 -12z"/>
<path d="M2443 3625 c-8 -23 27 -56 56 -53 37 4 37 25 -1 48 -40 24 -47 25 -55 5z"/>
<path d="M1796 3591 c-4 -5 -3 -16 0 -25 13 -34 105 -63 125 -40 15 19 5 31 -35 38 -19 4 -39 13 -46 21 -14 17 -36 20 -44 6z"/>
<path d="M2056 3590 c-89 -28 -103 -123 -28 -187 21 -18 23 -23 10 -23 -21 0 -78 48 -78 66 0 21 -37 54 -60 54 -30 0 -24 -14 10 -27 20 -8 30 -18 30 -33 0 -29 40 -64 91 -79 39 -12 66 -7 42 7 -6 4 20 7 57 7 62 0 72 3 99 29 58 56 50 144 -16 171 -45 19 -121 26 -157 15z m121 -51 c32 -12 43 -26 43 -56 0 -39 -34 -63 -90 -63 -41 0 -56 5 -75 25 -67 67 19 133 122 94z"/>
<path d="M2088 3523 c7 -3 16 -2 19 1 4 3 -2 6 -13 5 -11 0 -14 -3 -6 -6z"/>
<path d="M2165 3520 c-3 -5 1 -10 10 -10 9 0 13 5 10 10 -3 6 -8 10 -10 10 -2 0 -7 -4 -10 -10z"/>
<path d="M2100 3480 c0 -5 5 -10 10 -10 6 0 10 5 10 10 0 6 -4 10 -10 10 -5 0 -10 -4 -10 -10z"/>
<path d="M2160 3470 c0 -13 18 -22 24 -11 3 5 -1 11 -9 15 -8 3 -15 1 -15 -4z"/>
<path d="M2050 3460 c0 -5 5 -10 10 -10 6 0 10 5 10 10 0 6 -4 10 -10 10 -5 0 -10 -4 -10 -10z"/>
<path d="M2749 3551 c-21 -17 -24 -29 -28 -110 -2 -58 1 -96 8 -105 18 -22 96 -37 191 -37 97 0 160 18 160 47 0 16 -2 15 -21 -2 -27 -24 -146 -31 -242 -14 -59 10 -70 16 -79 39 -21 56 11 181 47 181 7 0 17 5 20 10 11 18 -32 11 -56 -9z"/>
<path d="M2344 3516 c-22 -22 -34 -44 -34 -60 0 -27 -23 -54 -74 -89 -26 -18 -32 -40 -20 -71 11 -27 24 -17 18 13 -6 27 -1 33 44 63 42 27 51 39 56 71 7 43 45 87 76 87 11 0 20 5 20 10 0 23 -53 9 -86 -24z"/>
<path d="M3050 3541 c0 -6 14 -11 30 -11 33 0 37 -11 20 -55 -8 -20 -7 -26 2 -23 20 7 34 56 22 76 -12 19 -74 29 -74 13z"/>
<path d="M2810 3522 c-64 -31 -75 -98 -26 -147 92 -92 328 -20 287 88 -25 64 -180 100 -261 59z m116 -39 c11 -15 15 -15 22 -5 7 11 10 10 16 -3 19 -51 -8 -75 -83 -75 -59 0 -81 11 -81 41 0 20 43 55 48 39 6 -16 32 -12 32 5 0 21 30 19 46 -2z m59 -82 c-16 -15 -17 -14 -6 6 6 12 12 32 12 45 2 18 3 17 6 -6 3 -18 -1 -34 -12 -45z"/>
<path d="M2825 3439 c-10 -15 3 -25 16 -12 7 7 7 13 1 17 -6 3 -14 1 -17 -5z"/>
<path d="M2860 3440 c0 -5 6 -10 14 -10 8 0 18 5 21 10 3 6 -3 10 -14 10 -12 0 -21 -4 -21 -10z"/>
<path d="M2925 3430 c3 -5 10 -10 16 -10 5 0 9 5 9 10 0 6 -7 10 -16 10 -8 0 -12 -4 -9 -10z"/>
<path d="M2455 3505 c-60 -16 -95 -52 -95 -100 0 -73 78 -114 179 -95 89 17 151 64 151 115 0 33 -39 78 -61 72 -12 -3 -19 0 -19 9 0 18 -85 18 -155 -1z m180 -96 c-9 -29 -69 -52 -136 -53 -63 -1 -89 14 -89 50 0 44 97 79 147 53 22 -12 26 -11 35 4 9 16 11 16 29 -8 14 -16 18 -32 14 -46z"/>
<path d="M2490 3430 c0 -5 6 -10 14 -10 8 0 18 5 21 10 3 6 -3 10 -14 10 -12 0 -21 -4 -21 -10z"/>
<path d="M2432 3418 c5 -15 28 -23 28 -10 0 5 -7 13 -16 16 -10 4 -14 1 -12 -6z"/>
<path d="M2552 3421 c4 -13 18 -16 19 -4 0 4 -5 9 -11 12 -7 2 -11 -2 -8 -8z"/>
<path d="M3223 3473 c-23 -9 -14 -20 15 -19 15 0 39 -3 55 -7 38 -10 34 8 -4 22 -34 12 -46 12 -66 4z"/>
<path d="M2263 3353 c-19 -7 -16 -27 8 -57 25 -31 59 -35 59 -6 0 11 -4 20 -9 20 -5 0 -12 9 -16 19 -6 21 -23 30 -42 24z"/>
<path d="M1941 3339 c-42 -8 -71 -24 -71 -39 0 -4 19 -1 43 6 23 8 54 16 70 19 15 3 27 10 27 15 0 11 -8 11 -69 -1z"/>
<path d="M1990 3311 c-81 -16 -109 -54 -87 -118 18 -55 75 -95 141 -101 69 -6 96 1 135 34 25 21 31 34 31 64 0 104 -82 148 -220 121z m168 -84 c44 -89 -117 -129 -190 -47 -49 53 -31 79 60 89 68 8 112 -6 130 -42z"/>
<path d="M2000 3250 c0 -5 7 -10 15 -10 8 0 15 5 15 10 0 6 -7 10 -15 10 -8 0 -15 -4 -15 -10z"/>
<path d="M2085 3240 c3 -5 10 -10 16 -10 5 0 9 5 9 10 0 6 -7 10 -16 10 -8 0 -12 -4 -9 -10z"/>
<path d="M2020 3211 c0 -5 7 -11 15 -15 9 -3 15 0 15 9 0 8 -7 15 -15 15 -8 0 -15 -4 -15 -9z"/>
<path d="M1966 3202 c-3 -6 -1 -14 5 -17 15 -10 25 3 12 16 -7 7 -13 7 -17 1z"/>
<path d="M2085 3180 c3 -5 13 -10 21 -10 8 0 14 5 14 10 0 6 -9 10 -21 10 -11 0 -17 -4 -14 -10z"/>
<path d="M2610 3301 c-34 -9 -34 -45 0 -49 33 -4 65 20 57 42 -7 17 -17 18 -57 7z"/>
<path d="M1616 3284 c-17 -17 -10 -40 18 -64 9 -7 16 -21 16 -32 0 -20 26 -36 38 -23 4 4 1 10 -5 12 -7 3 -13 13 -13 22 0 10 -9 26 -20 36 -21 19 -27 45 -10 45 6 0 10 5 10 10 0 15 -16 12 -34 -6z"/>
<path d="M1775 3290 c-11 -5 -35 -9 -52 -9 -26 -1 -33 -5 -33 -21 0 -17 7 -20 45 -20 54 0 97 18 93 39 -4 19 -25 23 -53 11z"/>
<path d="M2703 3261 c-45 -21 -63 -45 -63 -86 0 -108 162 -165 298 -105 29 12 59 32 67 44 37 53 -6 134 -66 122 -22 -4 -29 -2 -29 9 0 38 -136 48 -207 16z m198 -46 c32 -17 52 -55 43 -80 -9 -22 -23 -18 -17 5 7 26 -14 26 -22 1 -16 -52 -114 -66 -158 -23 -26 27 -25 71 3 94 28 23 109 24 151 3z m-190 -29 c-6 -14 -8 -33 -4 -43 4 -10 2 -14 -4 -10 -18 12 -21 45 -6 67 19 27 26 20 14 -14z"/>
<path d="M2775 3210 c-3 -5 3 -10 14 -10 12 0 21 5 21 10 0 6 -6 10 -14 10 -8 0 -18 -4 -21 -10z"/>
<path d="M2860 3200 c0 -5 7 -10 15 -10 8 0 15 5 15 10 0 6 -7 10 -15 10 -8 0 -15 -4 -15 -10z"/>
<path d="M2790 3170 c0 -5 7 -10 16 -10 8 0 12 5 9 10 -3 6 -10 10 -16 10 -5 0 -9 -4 -9 -10z"/>
<path d="M2742 3159 c2 -7 10 -15 17 -17 8 -3 12 1 9 9 -2 7 -10 15 -17 17 -8 3 -12 -1 -9 -9z"/>
<path d="M2861 3156 c-8 -9 -11 -19 -7 -23 9 -9 29 13 24 27 -2 8 -8 7 -17 -4z"/>
<path d="M3030 3235 c0 -4 7 -20 16 -37 14 -28 14 -50 -2 -92 -10 -27 12 -18 24 9 16 35 15 60 -3 95 -13 26 -35 41 -35 25z"/>
<path d="M2306 3210 c-46 -14 -66 -39 -66 -80 0 -40 26 -82 63 -102 12 -7 49 -17 82 -24 55 -11 57 -12 20 -13 -34 0 -122 25 -187 53 -10 5 -18 4 -18 -2 0 -5 28 -22 63 -38 57 -26 73 -28 185 -29 123 -2 124 -1 133 23 6 15 6 29 1 34 -6 6 -12 -1 -16 -17 -6 -22 -11 -26 -29 -21 -12 3 -38 6 -57 6 l-35 1 40 14 c51 18 65 38 65 93 0 35 -4 45 -20 49 -11 3 -20 13 -20 23 0 10 -7 20 -15 23 -28 12 -161 16 -189 7z m30 -49 c-3 -5 3 -11 14 -14 22 -6 28 8 8 16 -7 3 10 5 37 5 28 0 44 -2 38 -5 -18 -7 -16 -23 2 -23 8 0 15 5 15 10 0 18 29 10 35 -10 8 -24 -14 -68 -25 -50 -4 6 -18 10 -31 8 l-24 -5 25 -11 c22 -11 18 -12 -33 -9 -41 3 -61 9 -71 22 -7 10 -18 15 -23 12 -22 -14 -24 28 -3 45 23 19 45 24 36 9z"/>
<path d="M2365 3110 c3 -5 8 -10 11 -10 2 0 4 5 4 10 0 6 -5 10 -11 10 -5 0 -7 -4 -4 -10z"/>
<path d="M1817 3184 c-13 -14 -7 -51 11 -67 39 -36 61 -13 34 34 -19 34 -33 44 -45 33z"/>
<path d="M1720 3150 c0 -20 41 -50 68 -49 l27 1 -31 13 c-17 8 -34 21 -37 30 -7 17 -27 21 -27 5z"/>
<path d="M1916 3099 c20 -33 203 -55 244 -29 25 15 6 20 -49 11 -53 -8 -126 0 -160 19 -26 13 -44 13 -35 -1z"/>
<path d="M2600 3060 c0 -5 9 -10 20 -10 11 0 20 -6 20 -14 0 -34 31 -48 92 -42 35 4 73 2 97 -5 35 -10 43 -9 74 10 19 11 50 21 70 21 33 0 75 25 62 38 -3 3 -11 0 -17 -6 -7 -7 -31 -12 -54 -12 -26 0 -51 -7 -67 -20 -23 -18 -31 -20 -66 -10 -22 6 -65 9 -97 8 -55 -3 -59 -1 -72 25 -9 18 -21 27 -38 27 -13 0 -24 -4 -24 -10z"/>
<path d="M3130 3730 c0 -5 7 -10 15 -10 8 0 15 5 15 10 0 6 -7 10 -15 10 -8 0 -15 -4 -15 -10z"/>
<path d="M3080 3700 c0 -5 7 -10 15 -10 8 0 15 5 15 10 0 6 -7 10 -15 10 -8 0 -15 -4 -15 -10z"/>
<path d="M3026 3686 c3 -9 11 -16 16 -16 13 0 5 23 -10 28 -7 2 -10 -2 -6 -12z"/>
<path d="M3135 3680 c3 -5 13 -10 21 -10 8 0 14 5 14 10 0 6 -9 10 -21 10 -11 0 -17 -4 -14 -10z"/>
<path d="M1910 3690 c0 -5 7 -10 15 -10 8 0 15 5 15 10 0 6 -7 10 -15 10 -8 0 -15 -4 -15 -10z"/>
<path d="M1870 3676 c0 -9 5 -16 10 -16 6 0 10 4 10 9 0 6 -4 13 -10 16 -5 3 -10 -1 -10 -9z"/>
<path d="M1980 3681 c0 -5 5 -13 10 -16 6 -3 10 -2 10 4 0 5 -4 13 -10 16 -5 3 -10 2 -10 -4z"/>
<path d="M1700 3420 c0 -5 5 -10 10 -10 6 0 10 5 10 10 0 6 -4 10 -10 10 -5 0 -10 -4 -10 -10z"/>
<path d="M3215 3320 c3 -5 10 -10 16 -10 5 0 9 5 9 10 0 6 -7 10 -16 10 -8 0 -12 -4 -9 -10z"/>
<path d="M3162 3311 c2 -7 7 -12 11 -12 12 1 9 15 -3 20 -7 2 -11 -2 -8 -8z"/>
<path d="M3275 3300 c-3 -5 1 -10 9 -10 9 0 16 5 16 10 0 6 -4 10 -9 10 -6 0 -13 -4 -16 -10z"/>
<path d="M3106 3894 c-9 -22 3 -32 14 -14 12 19 12 30 1 30 -5 0 -12 -7 -15 -16z"/>
<path d="M3520 3466 c0 -7 7 -19 15 -26 8 -7 15 -23 15 -36 0 -12 5 -26 10 -29 17 -10 11 45 -7 76 -18 31 -33 38 -33 15z"/>
<path d="M905 2520 c-87 -20 -125 -59 -124 -127 1 -27 -3 -65 -10 -84 -21 -67 -79 -355 -85 -424 -10 -127 32 -181 87 -115 16 18 40 74 58 133 20 63 42 113 58 130 14 16 68 49 118 74 162 79 223 158 203 263 -15 79 -106 140 -230 153 -25 2 -58 1 -75 -3z m166 -163 c49 -33 49 -61 -1 -107 -44 -41 -145 -98 -155 -89 -5 6 19 169 31 207 6 21 87 15 125 -11z"/>
<path d="M1423 2503 c-17 -7 -35 -79 -28 -112 3 -15 1 -40 -4 -54 -9 -23 -7 -31 17 -56 15 -16 47 -36 72 -44 25 -9 71 -25 103 -36 l58 -22 85 21 c143 34 164 25 95 -40 -26 -25 -65 -47 -117 -65 -76 -27 -134 -66 -134 -90 0 -6 18 -29 40 -50 28 -28 38 -45 34 -58 -4 -11 2 -27 14 -40 11 -12 22 -29 24 -37 4 -9 -39 -61 -116 -140 -203 -209 -276 -320 -276 -422 0 -46 4 -59 19 -68 30 -16 92 -12 137 9 47 21 124 87 124 105 0 7 25 44 55 83 30 39 55 75 55 80 0 5 24 33 54 62 43 42 56 63 61 95 4 23 16 61 26 86 18 41 27 49 112 92 101 52 195 127 183 146 -11 19 -30 15 -103 -22 -133 -67 -141 -69 -174 -46 -43 31 -69 72 -58 92 5 10 40 33 77 53 37 19 84 50 105 68 32 27 39 41 48 95 6 34 15 62 20 62 5 0 39 -12 76 -26 118 -45 120 -45 211 -24 141 34 161 25 93 -40 -26 -25 -65 -47 -117 -65 -76 -27 -134 -66 -134 -90 0 -6 18 -29 40 -50 28 -28 38 -45 34 -58 -4 -11 2 -27 14 -40 11 -12 22 -29 24 -37 4 -9 -39 -61 -116 -140 -203 -209 -276 -320 -276 -422 0 -46 4 -59 19 -68 30 -16 92 -12 137 9 47 21 124 87 124 105 0 7 25 44 55 83 30 39 55 75 55 80 0 5 24 33 54 62 43 42 56 63 61 95 4 23 16 61 26 86 18 41 27 49 108 90 l88 45 37 -67 c48 -88 64 -92 148 -42 35 21 86 60 113 87 l50 49 7 -48 c8 -55 36 -99 64 -99 16 0 20 14 31 95 11 87 48 219 78 280 16 33 26 102 17 117 -4 7 -47 33 -95 58 -65 34 -94 44 -112 39 -34 -9 -156 -144 -227 -252 -74 -114 -89 -127 -181 -168 l-78 -34 -29 20 c-44 31 -70 72 -59 92 5 10 40 33 77 53 37 19 84 50 105 68 33 28 39 40 49 100 10 64 10 69 -11 91 -40 42 -100 52 -201 33 -141 -27 -154 -24 -235 55 -22 23 -52 40 -73 44 -31 6 -38 3 -64 -27 -16 -19 -33 -45 -39 -58 -7 -16 -14 -21 -27 -16 -40 16 -83 16 -157 1 -142 -29 -168 -20 -253 93 -45 58 -92 104 -104 100 -2 0 -9 -3 -15 -6z m1562 -365 c-4 -13 -15 -34 -26 -48 -10 -14 -28 -41 -38 -61 -18 -32 -179 -189 -195 -189 -32 0 64 146 163 248 72 74 108 93 96 50z m-1285 -432 c0 -16 -60 -140 -88 -184 -48 -74 -196 -226 -213 -220 -22 8 -12 34 53 137 67 108 248 302 248 267z m590 0 c0 -16 -60 -140 -88 -184 -48 -74 -196 -226 -213 -220 -22 8 -12 34 53 137 67 108 248 302 248 267z"/>
<path d="M3747 2495 c-38 -37 -23 -158 24 -201 19 -17 22 -17 47 -2 75 46 77 100 7 173 -48 49 -56 52 -78 30z"/>
<path d="M3468 2288 l-68 -31 -26 26 c-15 15 -37 27 -48 27 -44 0 -106 -93 -106 -157 0 -16 -13 -84 -30 -151 -35 -143 -35 -149 -14 -201 19 -48 40 -57 82 -36 32 17 39 28 46 85 9 63 47 184 71 225 36 61 82 100 173 145 55 28 82 47 82 59 0 50 -67 54 -162 9z"/>
<path d="M4084 2310 c-32 -13 -151 -150 -216 -248 -32 -48 -67 -99 -77 -113 -11 -15 -23 -44 -27 -67 -5 -34 -1 -49 31 -106 25 -45 44 -68 60 -72 32 -8 133 52 200 119 l50 49 7 -48 c8 -55 36 -99 64 -99 16 0 20 14 31 95 11 87 48 219 78 280 16 33 26 102 17 117 -8 13 -176 103 -189 102 -4 0 -17 -4 -29 -9z m51 -172 c-4 -13 -15 -34 -26 -48 -10 -14 -28 -41 -38 -61 -18 -32 -179 -189 -195 -189 -32 0 64 146 163 248 72 74 108 93 96 50z"/>
<path d="M1244 2113 c-24 -27 -52 -68 -61 -93 -9 -25 -23 -55 -31 -67 -12 -19 -10 -30 13 -95 48 -132 78 -141 128 -40 19 37 40 85 47 107 7 22 26 64 42 92 36 64 33 90 -11 120 -52 35 -77 30 -127 -24z"/>
<path d="M3574 2113 c-24 -27 -52 -68 -61 -93 -9 -25 -23 -55 -31 -67 -12 -19 -10 -30 13 -95 48 -132 78 -141 128 -40 19 37 40 85 47 107 7 22 26 64 42 92 36 64 33 90 -11 120 -52 35 -77 30 -127 -24z"/>
<path d="M3885 1606 c-86 -17 -142 -19 -410 -19 -170 0 -377 3 -460 6 -82 4 -235 10 -340 13 -186 7 -190 6 -174 -12 16 -20 15 -54 -2 -54 -6 0 -6 -7 0 -18 11 -21 -6 -92 -21 -92 -11 0 6 -33 28 -54 12 -13 42 -16 147 -17 l132 -1 -80 -15 c-44 -7 -87 -21 -95 -30 -13 -14 -13 -15 3 -9 15 5 17 2 12 -14 -3 -10 -2 -27 4 -37 14 -27 19 -111 7 -123 -7 -7 -6 -10 2 -10 7 0 15 13 18 30 6 26 8 28 22 14 10 -10 18 -12 25 -5 10 10 40 3 33 -8 -3 -4 -1 -13 4 -21 7 -11 9 -8 7 12 -1 15 3 27 8 28 6 0 10 -11 9 -23 -1 -14 5 -24 12 -24 8 0 11 5 6 12 -4 6 1 2 11 -8 17 -19 17 -18 17 12 0 28 2 30 24 21 17 -6 26 -5 29 3 3 7 4 0 4 -15 -1 -15 2 -27 7 -27 5 0 13 -5 17 -13 7 -10 9 -10 9 0 0 6 5 12 11 12 5 0 7 -6 3 -12 -4 -7 1 -6 12 3 20 16 62 18 73 3 8 -13 161 -15 161 -3 0 5 8 9 18 9 14 0 15 -2 2 -10 -11 -8 -6 -10 20 -8 19 1 41 6 49 12 11 8 13 8 7 -1 -5 -9 1 -11 22 -7 21 4 31 2 35 -10 4 -9 13 -16 22 -16 8 0 15 -4 15 -10 0 -6 36 -8 98 -6 385 17 540 17 627 3 94 -15 285 -12 285 4 0 5 -4 9 -9 9 -5 0 -11 9 -14 20 -3 14 0 20 10 20 12 0 13 3 4 13 -6 8 -8 16 -6 19 3 3 8 15 10 27 2 13 7 31 10 42 4 11 2 19 -4 19 -6 0 -11 7 -11 15 0 14 -56 35 -96 35 -18 0 -21 6 -20 36 1 34 3 36 59 51 31 9 57 20 57 25 0 4 -4 8 -10 8 -5 0 -10 5 -10 11 0 8 5 8 15 -1 11 -9 15 -9 15 -1 0 7 4 10 8 7 4 -2 14 -1 22 5 10 6 11 9 3 9 -7 0 -14 -1 -15 -2 -2 -2 -14 5 -27 14 -13 9 -31 14 -40 10 -14 -5 -14 -4 -2 11 12 15 10 17 -15 18 -16 1 -39 1 -51 1 -14 -1 -23 5 -23 13 0 8 7 15 15 15 8 0 15 5 15 10 0 6 -15 9 -35 7 -19 -3 -35 0 -35 5 0 5 -10 9 -22 8 -58 -5 -98 1 -98 13 0 15 -38 52 -60 58 -8 3 -60 -4 -115 -15z m289 -94 c2 -4 -5 -9 -17 -9 -17 -2 -19 0 -7 7 18 12 18 12 24 2z m-1144 -132 c0 -68 1 -70 25 -70 16 0 25 -6 25 -15 0 -11 -11 -15 -40 -15 l-40 0 0 85 c0 69 3 85 15 85 12 0 15 -14 15 -70z m295 60 c24 -9 26 -14 23 -57 -2 -39 -7 -50 -25 -58 -13 -5 -23 -18 -23 -27 0 -11 -8 -18 -20 -18 -18 0 -20 7 -20 78 0 98 6 105 65 82z m309 4 c9 -3 16 -15 16 -25 0 -20 -15 -26 -25 -9 -11 17 -25 11 -25 -10 0 -11 7 -23 15 -26 8 -4 15 -10 15 -15 0 -5 -7 -9 -15 -9 -10 0 -15 -11 -15 -35 0 -24 -5 -35 -15 -35 -12 0 -15 15 -15 73 0 88 15 110 64 91z m166 -24 c0 -11 5 -20 10 -20 6 0 10 -7 10 -15 0 -8 -4 -15 -10 -15 -5 0 -10 -16 -10 -35 0 -32 2 -34 20 -23 22 14 33 8 24 -15 -8 -22 -32 -29 -55 -17 -16 9 -19 22 -19 85 0 60 3 75 15 75 8 0 15 -9 15 -20z m90 0 c0 -11 7 -20 15 -20 8 0 15 -7 15 -15 0 -8 -7 -15 -15 -15 -10 0 -15 -11 -15 -35 0 -19 5 -35 10 -35 6 0 10 5 10 10 0 6 7 10 15 10 22 0 18 -27 -5 -40 -14 -8 -26 -8 -40 0 -17 9 -20 21 -20 85 0 60 3 75 15 75 8 0 15 -9 15 -20z m-722 -32 c7 -7 12 -33 12 -59 0 -43 -2 -47 -27 -52 -63 -12 -87 40 -32 68 17 9 28 19 25 22 -3 3 -12 0 -20 -6 -22 -18 -39 -5 -26 20 12 21 50 25 68 7z m280 0 c7 -7 12 -22 12 -35 0 -19 -5 -23 -30 -23 -16 0 -30 -4 -30 -8 0 -17 13 -21 31 -9 21 13 32 6 23 -16 -8 -22 -39 -30 -64 -17 -15 8 -20 21 -20 53 0 47 13 67 45 67 12 0 26 -5 33 -12z m110 -15 c2 -16 -2 -23 -12 -23 -9 0 -16 5 -16 10 0 6 -4 10 -10 10 -5 0 -10 -20 -10 -45 0 -33 -4 -45 -15 -45 -12 0 -15 13 -15 61 l0 60 38 -3 c30 -2 38 -7 40 -25z m190 -10 c3 -30 1 -33 -22 -33 -16 0 -26 -6 -26 -15 0 -8 5 -15 10 -15 6 0 10 5 10 10 0 6 7 10 15 10 21 0 19 -27 -4 -40 -50 -26 -91 44 -60 101 8 15 19 19 42 17 28 -3 32 -7 35 -35z m282 11 c6 -14 10 -40 10 -59 0 -29 -4 -33 -29 -37 -52 -8 -81 28 -49 60 9 9 9 12 0 12 -7 0 -12 6 -12 13 0 42 65 51 80 11z m-1342 -189 c-3 -3 -9 2 -12 12 -6 14 -5 15 5 6 7 -7 10 -15 7 -18z m99 10 c0 -8 -4 -12 -9 -9 -5 3 -6 10 -3 15 9 13 12 11 12 -6z m175 -35 c3 9 7 8 16 -2 10 -13 6 -14 -28 -12 -28 2 -38 -1 -33 -9 5 -8 2 -8 -9 0 -8 7 -17 11 -20 8 -2 -3 -5 2 -5 10 0 10 4 12 12 5 9 -8 15 -6 19 6 6 16 8 16 25 0 13 -12 20 -14 23 -6z m113 -20 c10 -11 16 -20 13 -20 -3 0 -13 9 -23 20 -10 11 -16 20 -13 20 3 0 13 -9 23 -20z m44 6 c9 -11 9 -16 -1 -22 -7 -4 -10 -4 -6 1 4 4 3 14 -3 22 -6 7 -9 13 -6 13 2 0 10 -6 16 -14z m-76 -21 c-3 -9 -8 -14 -10 -11 -3 3 -2 9 2 15 9 16 15 13 8 -4z m407 -25 l23 -20 -59 0 c-38 0 -54 3 -45 9 11 7 10 10 -5 14 -13 3 -10 5 9 6 17 1 26 -3 22 -9 -4 -6 5 -10 22 -9 17 1 21 3 10 6 -9 2 -15 9 -12 14 8 12 8 12 35 -11z m69 -16 c2 -2 -5 -4 -16 -4 -12 0 -23 7 -27 15 -5 13 -2 14 17 4 12 -6 24 -13 26 -15z m120 12 c-7 -8 -98 -10 -105 -3 -4 4 19 7 51 7 32 0 56 -2 54 -4z"/>
<path d="M3300 1385 c0 -22 4 -34 10 -30 6 3 10 17 10 30 0 13 -4 27 -10 30 -6 4 -10 -8 -10 -30z"/>
<path d="M3125 1319 c-4 -6 -5 -13 -2 -16 7 -7 27 6 27 18 0 12 -17 12 -25 -2z"/>
<path d="M3400 1360 c0 -5 7 -10 15 -10 8 0 15 5 15 10 0 6 -7 10 -15 10 -8 0 -15 -4 -15 -10z"/>
<path d="M3700 1360 c0 -5 5 -10 10 -10 6 0 10 5 10 10 0 6 -4 10 -10 10 -5 0 -10 -4 -10 -10z"/>
<path d="M3980 1360 c0 -5 5 -10 10 -10 6 0 10 5 10 10 0 6 -4 10 -10 10 -5 0 -10 -4 -10 -10z"/>
<path d="M3986 1321 c-4 -7 -5 -15 -2 -18 9 -9 19 4 14 18 -4 11 -6 11 -12 0z"/>
<path d="M4298 1523 c7 -3 16 -2 19 1 4 3 -2 6 -13 5 -11 0 -14 -3 -6 -6z"/>
<path d="M4360 1400 c0 -6 7 -10 15 -10 8 0 15 2 15 4 0 2 -7 6 -15 10 -8 3 -15 1 -15 -4z"/>
<path d="M2618 1173 c7 -3 16 -2 19 1 4 3 -2 6 -13 5 -11 0 -14 -3 -6 -6z"/>
<path d="M2667 1143 c-4 -3 -7 -11 -7 -17 0 -6 5 -5 12 2 6 6 9 14 7 17 -3 3 -9 2 -12 -2z"/>
<path d="M2827 1144 c-11 -11 3 -24 18 -18 8 4 12 10 9 15 -6 11 -18 12 -27 3z"/>
<path d="M3267 1086 c-4 -9 -13 -16 -22 -16 -8 0 -15 -5 -15 -10 0 -7 6 -7 18 -1 11 6 23 7 28 2 5 -4 23 -4 39 0 17 3 22 7 13 8 -10 0 -20 0 -23 -1 -2 -2 -10 6 -18 16 -12 17 -14 17 -20 2z"/>
<path d="M3118 1083 c6 -2 18 -2 25 0 6 3 1 5 -13 5 -14 0 -19 -2 -12 -5z"/>
<path d="M3189 1063 c-12 -16 -12 -17 2 -6 9 7 20 9 24 5 5 -4 5 -1 1 6 -9 16 -11 15 -27 -5z"/>
</g>
</svg>